<svg width="22" height="22" viewBox="0 0 22 22" fill="none" xmlns="http://www.w3.org/2000/svg">
<g id="ring/notification/2">
<path id="Icon" d="M8.25016 18.0087C8.92203 18.7699 9.90503 19.25 11.0002 19.25C12.0953 19.25 13.0783 18.7699 13.7502 18.0087M14.6668 1.77423C16.8549 2.86161 18.4917 4.89184 19.0457 7.33334M16.4978 12.0825V9.16676C16.4978 6.12133 14.0456 3.66676 11.0002 3.66676C7.95474 3.66676 5.46933 6.01669 5.46933 9.16676V12.0627C5.46933 12.5057 5.4003 12.9457 5.2649 13.3658L4.58797 15.4664C4.56943 15.5239 4.61082 15.5833 4.66944 15.5833H17.2914C17.3534 15.5833 17.3974 15.5229 17.3784 15.4639L16.6968 13.3491C16.5649 12.9398 16.4978 12.5125 16.4978 12.0825Z" stroke="#5F6D7E" stroke-width="1.67" stroke-linecap="round"/>
</g>
</svg>
