<svg width="22" height="22" viewBox="0 0 22 22" fill="none" xmlns="http://www.w3.org/2000/svg">
<g id="star/circle" clip-path="url(#clip0_226_3155)">
<g id="Icon">
<path d="M12.9917 7.33763L11.7886 5.24338C11.4376 4.63232 10.557 4.6294 10.202 5.23811L8.91995 7.43585C8.65571 7.88884 8.21013 8.20697 7.6959 8.30982L6.11583 8.62584C5.40982 8.76704 5.13472 9.6297 5.62864 10.1535L6.75996 11.3534C7.18155 11.8006 7.35106 12.4292 7.21142 13.0277L6.67549 15.3245C6.49205 16.1107 7.34097 16.733 8.0355 16.3214L10.0652 15.1186C10.6415 14.7771 11.3582 14.7771 11.9345 15.1186L13.9642 16.3214C14.6587 16.733 15.5076 16.1107 15.3242 15.3245L14.7804 12.9942C14.6451 12.4143 14.7999 11.8047 15.1956 11.3596L16.3548 10.0555C16.8251 9.52639 16.5436 8.68649 15.8494 8.54765L14.2218 8.22214C13.7034 8.11846 13.255 7.79604 12.9917 7.33763Z" stroke="#437EF7" stroke-width="1.67"/>
<path d="M21.0832 11C21.0832 16.5688 16.5687 21.0833 10.9998 21.0833C5.43097 21.0833 0.916504 16.5688 0.916504 11C0.916504 5.43109 5.43097 0.916626 10.9998 0.916626C16.5687 0.916626 21.0832 5.43109 21.0832 11Z" stroke="#437EF7" stroke-width="1.67"/>
</g>
</g>
<defs>
<clipPath id="clip0_226_3155">
<rect width="22" height="22" fill="white"/>
</clipPath>
</defs>
</svg>
