<svg width="22" height="22" viewBox="0 0 22 22" fill="none" xmlns="http://www.w3.org/2000/svg">
<g id="box/double/horizontal" clip-path="url(#clip0_226_3130)">
<path id="Icon" d="M8.24984 0.916687L13.7498 0.916687C16.3167 0.916687 17.6002 0.916687 18.5806 1.41624C19.443 1.85566 20.1442 2.55682 20.5836 3.41923C21.0832 4.39966 21.0832 5.68311 21.0832 8.25002V13.75C21.0832 16.3169 21.0832 17.6004 20.5836 18.5808C20.1442 19.4432 19.443 20.1444 18.5806 20.5838C17.6002 21.0834 16.3167 21.0834 13.7498 21.0834H8.24984M8.24984 0.916687C5.68293 0.916687 4.39948 0.916687 3.41905 1.41624C2.55664 1.85566 1.85548 2.55682 1.41606 3.41923C0.916504 4.39966 0.916504 5.68311 0.916504 8.25002L0.916504 13.75C0.916504 16.3169 0.916504 17.6004 1.41606 18.5808C1.85548 19.4432 2.55664 20.1444 3.41905 20.5838C4.39948 21.0834 5.68293 21.0834 8.24984 21.0834M8.24984 0.916687L8.24984 21.0834M8.24984 11L21.9998 11" stroke="#5F6D7E" stroke-width="1.67" stroke-linecap="round"/>
</g>
<defs>
<clipPath id="clip0_226_3130">
<rect width="22" height="22" fill="white"/>
</clipPath>
</defs>
</svg>
