<svg width="22" height="22" viewBox="0 0 22 22" fill="none" xmlns="http://www.w3.org/2000/svg">
<g id="mail">
<path id="Icon" d="M2.75016 4.58335L9.87461 10.1246C10.5366 10.6395 11.4637 10.6395 12.1257 10.1246L19.2502 4.58335M4.76683 18.3334H17.2335C18.2603 18.3334 18.7736 18.3334 19.1658 18.1335C19.5108 17.9578 19.7912 17.6773 19.967 17.3323C20.1668 16.9402 20.1668 16.4268 20.1668 15.4V6.60002C20.1668 5.57326 20.1668 5.05988 19.967 4.6677C19.7912 4.32274 19.5108 4.04228 19.1658 3.86651C18.7736 3.66669 18.2603 3.66669 17.2335 3.66669H4.76683C3.74007 3.66669 3.22668 3.66669 2.83451 3.86651C2.48955 4.04228 2.20909 4.32274 2.03332 4.6677C1.8335 5.05988 1.8335 5.57326 1.8335 6.60002V15.4C1.8335 16.4268 1.8335 16.9402 2.03332 17.3323C2.20909 17.6773 2.48955 17.9578 2.83451 18.1335C3.22668 18.3334 3.74007 18.3334 4.76683 18.3334Z" stroke="#5F6D7E" stroke-width="1.67"/>
</g>
</svg>
