<svg width="22" height="22" viewBox="0 0 22 22" fill="none" xmlns="http://www.w3.org/2000/svg">
<g id="user/circle" clip-path="url(#clip0_226_3149)">
<path id="Icon" d="M17.9736 17.5942C17.61 16.8818 17.1302 16.2135 16.5341 15.6175C13.4777 12.561 8.52214 12.561 5.46567 15.6175C4.8696 16.2135 4.38978 16.8818 4.0262 17.5942M0.916504 11C0.916504 5.43109 5.43097 0.916625 10.9998 0.916626C16.5687 0.916626 21.0832 5.43109 21.0832 11C21.0832 16.5688 16.5687 21.0833 10.9998 21.0833C5.43097 21.0833 0.916503 16.5688 0.916504 11ZM14.6665 9.16662C14.6665 11.1917 13.0249 12.8333 10.9998 12.8333C8.97479 12.8333 7.33317 11.1917 7.33317 9.16662C7.33317 7.14158 8.97479 5.49996 10.9998 5.49996C13.0249 5.49996 14.6665 7.14158 14.6665 9.16662Z" stroke="#5F6D7E" stroke-width="1.67"/>
</g>
<defs>
<clipPath id="clip0_226_3149">
<rect width="22" height="22" fill="white"/>
</clipPath>
</defs>
</svg>
