<svg width="128" height="32" viewBox="0 0 128 32" fill="none" xmlns="http://www.w3.org/2000/svg">
<g id="Company Logo">
<g id="Lookscout">
<path d="M33.0568 9.25309H35.8961V20.0713H41.1585V22.513H33.0568V9.25309Z" fill="#2E343F"/>
<path d="M42.4367 20.2607C42.002 19.4597 41.7831 18.5594 41.8016 17.6482C41.7831 16.7371 42.002 15.8368 42.4367 15.0358C42.85 14.2873 43.4759 13.6782 44.2353 13.2852C45.0768 12.8795 45.9989 12.6688 46.9331 12.6688C47.8673 12.6688 48.7895 12.8795 49.631 13.2852C50.3892 13.6797 51.0147 14.2885 51.4296 15.0358C51.8622 15.8375 52.0801 16.7374 52.062 17.6482C52.0823 18.5627 51.8643 19.4667 51.4296 20.2714C51.0119 21.0139 50.3869 21.6185 49.631 22.0113C48.7895 22.417 47.8673 22.6277 46.9331 22.6277C45.9989 22.6277 45.0768 22.417 44.2353 22.0113C43.4759 21.6183 42.85 21.0092 42.4367 20.2607ZM49.3562 17.6482C49.3862 16.9151 49.1502 16.1957 48.6917 15.6228C48.4759 15.3702 48.2054 15.1699 47.9007 15.0372C47.596 14.9045 47.2652 14.8429 46.9331 14.857C46.6014 14.8436 46.271 14.9067 45.9674 15.0414C45.6639 15.176 45.3954 15.3786 45.1826 15.6335C44.7268 16.2073 44.4945 16.9269 44.5288 17.6589C44.4945 18.3909 44.7268 19.1105 45.1826 19.6843C45.3954 19.9392 45.6639 20.1418 45.9674 20.2765C46.271 20.4111 46.6014 20.4742 46.9331 20.4609C47.2669 20.4723 47.5988 20.4074 47.9036 20.271C48.2084 20.1345 48.478 19.9302 48.6917 19.6737C49.1502 19.1008 49.3862 18.3814 49.3562 17.6482Z" fill="#2E343F"/>
<path d="M53.7939 20.2607C53.3592 19.4597 53.1403 18.5594 53.1588 17.6483C53.1403 16.7371 53.3592 15.8368 53.7939 15.0358C54.2072 14.2873 54.8331 13.6782 55.5925 13.2852C56.4335 12.8796 57.3552 12.6689 58.289 12.6689C59.2228 12.6689 60.1445 12.8796 60.9855 13.2852C61.7449 13.6782 62.3708 14.2873 62.7841 15.0358C63.2188 15.8368 63.4377 16.7371 63.4192 17.6483C63.4399 18.5631 63.221 19.4674 62.7841 20.2714C62.368 21.015 61.7426 21.62 60.9855 22.0113C60.1445 22.417 59.2228 22.6276 58.289 22.6276C57.3552 22.6276 56.4335 22.417 55.5925 22.0113C54.8331 21.6183 54.2072 21.0092 53.7939 20.2607ZM60.7134 17.6483C60.7464 16.9164 60.5143 16.1972 60.0596 15.6229C59.836 15.3782 59.564 15.1828 59.2607 15.0491C58.9575 14.9154 58.6297 14.8464 58.2984 14.8464C57.967 14.8464 57.6392 14.9154 57.336 15.0491C57.0327 15.1828 56.7607 15.3782 56.5371 15.6229C56.0872 16.1991 55.8599 16.9181 55.8967 17.6483C55.8629 18.3798 56.0941 19.0989 56.5478 19.6737C56.7713 19.9183 57.0434 20.1137 57.3466 20.2474C57.6499 20.3811 57.9776 20.4501 58.309 20.4501C58.6404 20.4501 58.9682 20.3811 59.2714 20.2474C59.5747 20.1137 59.8467 19.9183 60.0703 19.6737C60.5211 19.0978 60.7494 18.3787 60.7134 17.6483Z" fill="#2E343F"/>
<path d="M67.5634 9.25309V16.9278L71.3874 12.7835H74.3789L70.9098 16.5889L74.5763 22.513H71.4835L69.0231 18.5769L67.5634 20.146V22.513H64.8949V9.25309H67.5634Z" fill="#2E343F"/>
<path d="M77.8613 20.3168C78.2921 20.6027 78.8016 20.7464 79.3183 20.7277C79.7784 20.7514 80.237 20.6597 80.6526 20.4609C80.8057 20.3916 80.935 20.2787 81.0242 20.1363C81.1134 19.9939 81.1587 19.8283 81.1542 19.6603C81.1624 19.5545 81.1462 19.4483 81.1069 19.3498C81.0676 19.2512 81.0062 19.163 80.9274 19.0919C80.7376 18.9527 80.517 18.8612 80.2843 18.8251C80.0175 18.769 79.5531 18.7023 78.9207 18.6276C78.1985 18.5408 77.4845 18.3954 76.7859 18.1926C76.2647 18.0428 75.7937 17.7551 75.4223 17.3601C75.0656 16.938 74.8824 16.3963 74.9099 15.8443C74.903 15.2429 75.0901 14.6552 75.4436 14.1685C75.8161 13.6626 76.3239 13.2722 76.9086 13.0424C77.6008 12.7664 78.3411 12.6312 79.0861 12.6448C80.4115 12.6572 81.4789 12.941 82.2884 13.496C82.6771 13.7473 82.9996 14.0885 83.2286 14.4907C83.4576 14.893 83.5863 15.3444 83.6039 15.807H81.0689C81.0485 15.6228 80.9859 15.4459 80.8859 15.2899C80.7859 15.1339 80.6513 15.0031 80.4925 14.9077C80.0929 14.6599 79.628 14.5381 79.1582 14.5581C78.7334 14.5384 78.3114 14.6363 77.9387 14.841C77.7996 14.913 77.6828 15.0216 77.6009 15.1552C77.5191 15.2888 77.4753 15.4422 77.4743 15.5988C77.4683 15.6977 77.4876 15.7965 77.5306 15.8857C77.5736 15.9749 77.6388 16.0517 77.7199 16.1085C77.9146 16.2351 78.1337 16.3196 78.363 16.3567C78.6298 16.4047 79.0701 16.4634 79.6972 16.5248C81.0101 16.6778 82.0171 16.9589 82.718 17.3681C83.4172 17.779 83.7667 18.4808 83.7667 19.4789C83.7759 20.0812 83.5792 20.6687 83.209 21.144C82.8026 21.6486 82.2654 22.0317 81.6559 22.2515C80.9202 22.5238 80.14 22.6559 79.3557 22.6411C78.0054 22.6411 76.9077 22.3413 76.0627 21.7418C75.661 21.4689 75.3303 21.1039 75.0982 20.6774C74.8661 20.2508 74.7393 19.7749 74.7284 19.2894H77.2449C77.263 19.4962 77.3279 19.6961 77.4347 19.8741C77.5415 20.0521 77.6874 20.2035 77.8613 20.3168Z" fill="#2E343F"/>
<path d="M89.9177 22.6277C88.9966 22.6486 88.0851 22.4365 87.2678 22.0113C86.5242 21.6135 85.9151 21.0043 85.5173 20.2607C85.0969 19.4551 84.8858 18.5568 84.9035 17.6483C84.8833 16.7369 85.0945 15.8354 85.5173 15.0278C85.9192 14.2856 86.5321 13.6792 87.2785 13.2852C88.1021 12.859 89.0199 12.647 89.947 12.6688C91.2475 12.6688 92.3069 13.0006 93.1252 13.6642C93.9623 14.356 94.5043 15.3407 94.6409 16.4181H91.8683C91.7763 15.971 91.5366 15.5678 91.1879 15.2733C90.8299 14.9823 90.3787 14.8306 89.9177 14.8463C89.5986 14.8355 89.2814 14.9003 88.9921 15.0352C88.7027 15.1701 88.4493 15.3715 88.2525 15.6229C87.8154 16.2049 87.5946 16.9211 87.6281 17.6483C87.5946 18.3754 87.8154 19.0916 88.2525 19.6737C88.4482 19.927 88.7011 20.1304 88.9906 20.2672C89.28 20.404 89.5977 20.4704 89.9177 20.4609C90.3883 20.4774 90.849 20.3229 91.2146 20.0259C91.5709 19.7189 91.8088 19.2969 91.887 18.8331H94.6329C94.5082 19.9222 93.9693 20.9216 93.1279 21.6244C92.3006 22.2933 91.2306 22.6277 89.9177 22.6277Z" fill="#2E343F"/>
<path d="M96.1913 20.2607C95.7567 19.4597 95.5378 18.5594 95.5562 17.6483C95.5378 16.7371 95.7567 15.8368 96.1913 15.0358C96.6047 14.2873 97.2306 13.6782 97.9899 13.2852C98.831 12.8796 99.7527 12.6689 100.686 12.6689C101.62 12.6689 102.542 12.8796 103.383 13.2852C104.142 13.6782 104.768 14.2873 105.182 15.0358C105.616 15.8368 105.835 16.7371 105.817 17.6483C105.837 18.5631 105.618 19.4674 105.182 20.2714C104.769 21.0131 104.148 21.6179 103.396 22.0113C102.555 22.417 101.634 22.6276 100.7 22.6276C99.766 22.6276 98.8443 22.417 98.0033 22.0113C97.239 21.6205 96.6082 21.0111 96.1913 20.2607ZM103.111 17.6483C103.144 16.9164 102.912 16.1972 102.457 15.6229C102.233 15.3782 101.961 15.1828 101.658 15.0491C101.355 14.9154 101.027 14.8464 100.696 14.8464C100.364 14.8464 100.037 14.9154 99.7334 15.0491C99.4302 15.1828 99.1581 15.3782 98.9346 15.6229C98.4808 16.1976 98.2497 16.9168 98.2835 17.6483C98.2497 18.3798 98.4808 19.0989 98.9346 19.6737C99.1581 19.9183 99.4302 20.1137 99.7334 20.2474C100.037 20.3811 100.364 20.4501 100.696 20.4501C101.027 20.4501 101.355 20.3811 101.658 20.2474C101.961 20.1137 102.233 19.9183 102.457 19.6737C102.913 19.0996 103.146 18.3804 103.113 17.6483H103.111Z" fill="#2E343F"/>
<path d="M116.456 22.513H114.092L113.844 21.3388C113.502 21.7629 113.065 22.1006 112.569 22.3245C112.072 22.5485 111.53 22.6523 110.986 22.6277C110.475 22.6472 109.965 22.5643 109.486 22.3837C109.008 22.2031 108.57 21.9286 108.2 21.5763C107.488 20.8772 107.132 19.7066 107.132 18.0645V12.7835H109.801V17.7416C109.801 18.6276 109.956 19.2921 110.265 19.7404C110.426 19.9655 110.642 20.1455 110.893 20.2632C111.143 20.381 111.419 20.4325 111.695 20.4128C111.996 20.4263 112.294 20.3652 112.565 20.2347C112.835 20.1043 113.069 19.9088 113.246 19.6656C113.614 19.1666 113.796 18.4675 113.796 17.5735V12.7835H116.464L116.456 22.513Z" fill="#2E343F"/>
<path d="M117.403 15.0358V12.7835H119.005V10.0536H121.673V12.7835H123.888V15.0358H121.673V19.3054C121.649 19.5703 121.726 19.8344 121.889 20.0446C121.99 20.1293 122.106 20.193 122.232 20.232C122.357 20.2709 122.49 20.2843 122.62 20.2714H124V22.5236H121.809C119.952 22.5236 119.024 21.5959 119.026 19.7404V15.0358H117.403Z" fill="#2E343F"/>
<path d="M17.8564 7.19999L4 15.2V10.4L13.7026 4.79999L17.8564 7.19999Z" fill="#2E343F"/>
<path d="M23.4051 10.4V13.1692L6.4 22.9846L4 21.6V18.9949L21.1385 9.09742L23.4051 10.4Z" fill="#2E343F"/>
<path d="M9.68205 24.882L23.4051 16.9641V21.6L13.7026 27.2L9.68205 24.882Z" fill="#2E343F"/>
</g>
</g>
</svg>
