<svg width="20" height="20" viewBox="0 0 20 20" fill="none" xmlns="http://www.w3.org/2000/svg">
<g id="dot menu">
<path id="Icon" d="M9.68746 9.68747H10.3125M9.68746 10.3125H10.3125M3.85413 9.68747H4.47913M3.85413 10.3125H4.47913M15.5208 9.68747H16.1458M15.5208 10.3125H16.1458M10.8335 10C10.8335 10.4603 10.4604 10.8334 10.0002 10.8334C9.53993 10.8334 9.16683 10.4603 9.16683 10C9.16683 9.53978 9.53993 9.16669 10.0002 9.16669C10.4604 9.16669 10.8335 9.53978 10.8335 10ZM5.00016 10C5.00016 10.4603 4.62707 10.8334 4.16683 10.8334C3.70659 10.8334 3.3335 10.4603 3.3335 10C3.3335 9.53978 3.70659 9.16669 4.16683 9.16669C4.62707 9.16669 5.00016 9.53978 5.00016 10ZM16.6668 10C16.6668 10.4603 16.2937 10.8334 15.8335 10.8334C15.3733 10.8334 15.0002 10.4603 15.0002 10C15.0002 9.53978 15.3733 9.16669 15.8335 9.16669C16.2937 9.16669 16.6668 9.53978 16.6668 10Z" stroke="#5F6D7E" stroke-width="2" stroke-linecap="round"/>
</g>
</svg>
