<svg width="20" height="20" viewBox="0 0 20 20" fill="none" xmlns="http://www.w3.org/2000/svg">
<g id="download">
<path id="Icon" d="M10.835 2.5C10.835 2.03884 10.4612 1.665 10 1.665C9.53884 1.665 9.165 2.03884 9.165 2.5L10.835 2.5ZM9.165 11.6667C9.165 12.1278 9.53884 12.5017 10 12.5017C10.4612 12.5017 10.835 12.1278 10.835 11.6667L9.165 11.6667ZM13.9238 10.5904C14.2499 10.2643 14.2499 9.73565 13.9238 9.40957C13.5977 9.08348 13.069 9.08348 12.7429 9.40957L13.9238 10.5904ZM10.5893 12.7441L9.99882 12.1536L10.5893 12.7441ZM9.41074 12.7441L10.0012 12.1536H10.0012L9.41074 12.7441ZM7.2571 9.40957C6.93101 9.08348 6.40232 9.08348 6.07623 9.40957C5.75014 9.73565 5.75014 10.2643 6.07623 10.5904L7.2571 9.40957ZM3.335 13.3333C3.335 12.8722 2.96116 12.4983 2.5 12.4983C2.03884 12.4983 1.665 12.8722 1.665 13.3333H3.335ZM18.335 13.3333C18.335 12.8722 17.9612 12.4983 17.5 12.4983C17.0388 12.4983 16.665 12.8722 16.665 13.3333H18.335ZM16.135 17.2275L15.7559 16.4835H15.7559L16.135 17.2275ZM17.2275 16.135L17.9715 16.5141L17.2275 16.135ZM2.77248 16.135L2.02849 16.5141L2.77248 16.135ZM3.86502 17.2275L3.48594 17.9715H3.48594L3.86502 17.2275ZM9.165 2.5L9.165 11.6667L10.835 11.6667L10.835 2.5L9.165 2.5ZM12.7429 9.40957L9.99882 12.1536L11.1797 13.3345L13.9238 10.5904L12.7429 9.40957ZM10.0012 12.1536L7.2571 9.40957L6.07623 10.5904L8.82031 13.3345L10.0012 12.1536ZM9.99882 12.1536C9.99789 12.1546 9.99843 12.1539 9.9998 12.1533C10.0006 12.153 10.0006 12.1532 10 12.1532C9.99935 12.1532 9.99939 12.153 10.0002 12.1533C10.0016 12.1539 10.0021 12.1546 10.0012 12.1536L8.82031 13.3345C9.47183 13.986 10.5282 13.986 11.1797 13.3345L9.99882 12.1536ZM1.665 13.3333V13.5H3.335V13.3333H1.665ZM6.5 18.335H13.5V16.665H6.5V18.335ZM18.335 13.5V13.3333H16.665V13.5H18.335ZM13.5 18.335C14.1863 18.335 14.7512 18.3356 15.21 18.2982C15.6785 18.2599 16.1093 18.1777 16.5141 17.9715L15.7559 16.4835C15.6258 16.5498 15.4392 16.6039 15.074 16.6337C14.699 16.6644 14.2138 16.665 13.5 16.665V18.335ZM16.665 13.5C16.665 14.2138 16.6644 14.699 16.6337 15.074C16.6039 15.4392 16.5498 15.6258 16.4835 15.7559L17.9715 16.5141C18.1777 16.1093 18.2599 15.6785 18.2982 15.21C18.3356 14.7512 18.335 14.1863 18.335 13.5H16.665ZM16.5141 17.9715C17.1416 17.6518 17.6518 17.1416 17.9715 16.5141L16.4835 15.7559C16.3239 16.0692 16.0692 16.3239 15.7559 16.4835L16.5141 17.9715ZM1.665 13.5C1.665 14.1863 1.66435 14.7512 1.70183 15.21C1.74011 15.6785 1.82228 16.1093 2.02849 16.5141L3.51647 15.7559C3.45021 15.6258 3.39613 15.4392 3.36629 15.074C3.33565 14.699 3.335 14.2138 3.335 13.5H1.665ZM6.5 16.665C5.78616 16.665 5.30099 16.6644 4.926 16.6337C4.56076 16.6039 4.37416 16.5498 4.24411 16.4835L3.48594 17.9715C3.89066 18.1777 4.32149 18.2599 4.79001 18.2982C5.24878 18.3356 5.81371 18.335 6.5 18.335V16.665ZM2.02849 16.5141C2.34823 17.1416 2.85842 17.6518 3.48594 17.9715L4.24411 16.4835C3.93082 16.3239 3.6761 16.0692 3.51647 15.7559L2.02849 16.5141Z" fill="#272D37"/>
</g>
</svg>
