<svg width="18" height="18" viewBox="0 0 18 18" fill="none" xmlns="http://www.w3.org/2000/svg">
<g id="external link">
<path id="Icon" d="M14.915 7.5C14.915 7.96116 15.2888 8.335 15.75 8.335C16.2112 8.335 16.585 7.96116 16.585 7.5H14.915ZM10.5 1.415C10.0388 1.415 9.665 1.78884 9.665 2.25C9.665 2.71116 10.0388 3.085 10.5 3.085V1.415ZM15.6356 2.82331L16.3795 2.44423L16.3795 2.44423L15.6356 2.82331ZM15.1767 2.36444L15.5558 1.62045L15.5558 1.62045L15.1767 2.36444ZM15.2904 3.89043C15.6165 3.56435 15.6165 3.03565 15.2904 2.70957C14.9643 2.38348 14.4357 2.38348 14.1096 2.70957L15.2904 3.89043ZM8.40957 8.40957C8.08348 8.73565 8.08348 9.26435 8.40957 9.59043C8.73565 9.91652 9.26435 9.91652 9.59043 9.59043L8.40957 8.40957ZM3.64605 15.4713L4.02513 14.7273L4.02513 14.7273L3.64605 15.4713ZM2.52868 14.354L1.78469 14.733L1.78469 14.733L2.52868 14.354ZM13.2213 14.354L12.4773 13.9749L12.4773 13.9749L13.2213 14.354ZM12.104 15.4713L11.7249 14.7273L11.7249 14.7273L12.104 15.4713ZM3.64605 4.77868L3.26696 4.03469L3.26696 4.03469L3.64605 4.77868ZM2.52868 5.89605L1.78469 5.51696L1.78469 5.51696L2.52868 5.89605ZM7.875 5.335C8.33616 5.335 8.71 4.96116 8.71 4.5C8.71 4.03884 8.33616 3.665 7.875 3.665V5.335ZM14.335 10.125C14.335 9.66384 13.9612 9.29 13.5 9.29C13.0388 9.29 12.665 9.66384 12.665 10.125H14.335ZM16.585 7.5V3.93H14.915V7.5H16.585ZM14.07 1.415H10.5V3.085H14.07V1.415ZM16.585 3.93C16.585 3.64975 16.5856 3.38934 16.5679 3.17237C16.5494 2.94564 16.5067 2.69386 16.3795 2.44423L14.8916 3.20239C14.8788 3.17737 14.8934 3.18491 14.9035 3.30836C14.9144 3.44156 14.915 3.62219 14.915 3.93H16.585ZM14.07 3.085C14.3778 3.085 14.5584 3.08565 14.6916 3.09653C14.8151 3.10662 14.8226 3.12119 14.7976 3.10843L15.5558 1.62045C15.3061 1.49326 15.0544 1.4506 14.8276 1.43208C14.6107 1.41435 14.3502 1.415 14.07 1.415V3.085ZM16.3795 2.44423C16.1988 2.08955 15.9105 1.80118 15.5558 1.62045L14.7976 3.10843C14.8381 3.12904 14.871 3.16193 14.8916 3.20239L16.3795 2.44423ZM14.1096 2.70957L8.40957 8.40957L9.59043 9.59043L15.2904 3.89043L14.1096 2.70957ZM9.40909 14.915H6.34091V16.585H9.40909V14.915ZM3.085 11.6591V8.59091H1.415V11.6591H3.085ZM6.34091 14.915C5.61115 14.915 5.11406 14.9144 4.72959 14.8829C4.35487 14.8523 4.16127 14.7967 4.02513 14.7273L3.26696 16.2153C3.67776 16.4246 4.11561 16.5083 4.5936 16.5474C5.06184 16.5856 5.63871 16.585 6.34091 16.585V14.915ZM1.415 11.6591C1.415 12.3613 1.41435 12.9382 1.45261 13.4064C1.49166 13.8844 1.57537 14.3222 1.78469 14.733L3.27267 13.9749C3.2033 13.8387 3.14768 13.6451 3.11706 13.2704C3.08565 12.8859 3.085 12.3888 3.085 11.6591H1.415ZM4.02513 14.7273C3.70115 14.5623 3.43774 14.2989 3.27267 13.9749L1.78469 14.733C2.10987 15.3712 2.62875 15.8901 3.26697 16.2153L4.02513 14.7273ZM12.665 11.6591C12.665 12.3888 12.6644 12.8859 12.6329 13.2704C12.6023 13.6451 12.5467 13.8387 12.4773 13.9749L13.9653 14.733C14.1746 14.3222 14.2583 13.8844 14.2974 13.4064C14.3356 12.9382 14.335 12.3613 14.335 11.6591H12.665ZM9.40909 16.585C10.1113 16.585 10.6882 16.5856 11.1564 16.5474C11.6344 16.5083 12.0722 16.4246 12.483 16.2153L11.7249 14.7273C11.5887 14.7967 11.3951 14.8523 11.0204 14.8829C10.6359 14.9144 10.1388 14.915 9.40909 14.915V16.585ZM12.4773 13.9749C12.3123 14.2989 12.0489 14.5623 11.7249 14.7273L12.483 16.2153C13.1212 15.8901 13.6401 15.3712 13.9653 14.733L12.4773 13.9749ZM6.34091 3.665C5.63871 3.665 5.06184 3.66435 4.5936 3.70261C4.11561 3.74166 3.67776 3.82537 3.26696 4.03469L4.02513 5.52267C4.16127 5.4533 4.35487 5.39768 4.72959 5.36706C5.11406 5.33565 5.61115 5.335 6.34091 5.335V3.665ZM3.085 8.59091C3.085 7.86115 3.08565 7.36406 3.11706 6.97959C3.14768 6.60487 3.2033 6.41126 3.27267 6.27513L1.78469 5.51696C1.57537 5.92776 1.49166 6.36561 1.45261 6.8436C1.41435 7.31184 1.415 7.88871 1.415 8.59091H3.085ZM3.26696 4.03469C2.62875 4.35987 2.10987 4.87875 1.78469 5.51696L3.27267 6.27513C3.43774 5.95115 3.70115 5.68774 4.02513 5.52267L3.26696 4.03469ZM6.34091 5.335H7.875V3.665H6.34091V5.335ZM12.665 10.125V11.6591H14.335V10.125H12.665Z" fill="#437EF7"/>
</g>
</svg>
