<svg width="80" height="70" viewBox="0 0 80 70" fill="none" xmlns="http://www.w3.org/2000/svg">
<g id=".Graphics">
<path id="Fill" d="M15.2838 51.9659C10.9617 52.8913 10.6874 60.5996 7.98933 62.8135C5.29123 65.0274 1.3335 58.5734 1.3335 58.5734V69.8334H78.0602V41.3339C75.6489 43.5455 74.6037 54.131 71.1053 57.0993C67.6068 60.0677 68.8497 43.2006 65.9289 34.8525C63.008 26.5044 60.7029 47.8592 57.1347 46.4248C53.5665 44.9904 52.9301 53.9011 50.3254 52.185C47.7206 50.469 46.1706 41.2143 43.1844 38.385C40.1982 35.5556 39.0974 11.7354 36.2093 6.52797C33.3211 1.32054 32.1441 24.5914 29.2341 25.6151C26.3242 26.6388 24.7112 9.15576 22.259 11.7354C19.8067 14.315 19.6059 51.0404 15.2838 51.9659Z" fill="url(#paint0_linear_226_2304)"/>
<path id="Line" d="M1.3335 58.596C2.03478 59.6529 5.21964 64.9977 8.07509 62.6547C10.9305 60.3117 11.0058 51.9659 15.2838 51.9659C19.5619 51.9659 19.8068 14.315 22.259 11.7354C24.7112 9.15576 26.3242 26.6388 29.2341 25.6151C32.1441 24.5914 33.3211 1.32054 36.2093 6.52797C39.0974 11.7354 40.1982 35.5556 43.1844 38.385C46.1707 41.2143 47.4322 50.2498 50.0369 51.9659C52.6417 53.6819 52.901 46.4248 57.1347 46.4248C61.3684 46.4248 63.035 26.5881 65.9558 34.9362C68.8767 43.2843 67.5865 60.1561 71.085 57.1877C74.5835 54.2193 75.3538 44.1065 78.0602 41.4578" stroke="#5DC264" stroke-width="2" stroke-linecap="round" stroke-linejoin="round"/>
</g>
<defs>
<linearGradient id="paint0_linear_226_2304" x1="39.6968" y1="5.76935" x2="39.6968" y2="69.8334" gradientUnits="userSpaceOnUse">
<stop stop-color="#F04438" stop-opacity="0.3"/>
<stop offset="0.0001" stop-color="#5DC264" stop-opacity="0.3"/>
<stop offset="1" stop-color="white" stop-opacity="0"/>
</linearGradient>
</defs>
</svg>
