<svg width="100" height="71" viewBox="0 0 100 71" fill="none" xmlns="http://www.w3.org/2000/svg">
<g id=".Graphics">
<path id="Line" d="M10.2234 31.5349C6.59444 33.5092 1 56.8108 1 56.8108V70.9831H99V41.2949C99 41.2949 92.0641 21.6799 90.4756 19.5226C88.887 17.3652 84.777 16.7697 81.1505 17.02C77.524 17.2703 74.5867 4.00665 71.5428 3.75639C68.4989 3.50613 64.8301 23.0262 61.9352 23.5267C59.0403 24.0272 54.0327 7.00973 50.4437 5.50819C46.8546 4.00665 42.8451 13.2661 39.0935 13.5164C35.3418 13.7667 33.3053 0.753307 29.4387 1.00356C25.5721 1.25382 24.1013 27.048 19.9253 32.7862C16.2386 37.8519 13.9964 29.4822 10.2234 31.5349Z" fill="url(#paint0_linear_226_964)"/>
<path id="Line_2" d="M1 56.8108C1 56.8108 6.59444 33.5092 10.2234 31.5349C13.9964 29.4822 16.2386 37.8519 19.9253 32.7862C24.1013 27.048 25.5721 1.25382 29.4387 1.00356C33.3053 0.753307 35.3418 13.7667 39.0935 13.5164C42.8451 13.2661 46.8546 4.00665 50.4437 5.50819C54.0327 7.00973 59.0403 24.0272 61.9352 23.5267C64.8301 23.0262 68.4989 3.50613 71.5428 3.75639C74.5867 4.00665 77.524 17.2703 81.1505 17.02C84.777 16.7697 88.887 17.3652 90.4756 19.5226C92.0641 21.6799 99 41.2949 99 41.2949" stroke="#3694EB" stroke-width="2" stroke-linecap="round" stroke-linejoin="round"/>
</g>
<defs>
<linearGradient id="paint0_linear_226_964" x1="50" y1="1" x2="50" y2="70.9831" gradientUnits="userSpaceOnUse">
<stop stop-color="#3694EB" stop-opacity="0.3"/>
<stop offset="1" stop-color="white" stop-opacity="0"/>
</linearGradient>
</defs>
</svg>
