<svg width="91" height="71" viewBox="0 0 91 71" fill="none" xmlns="http://www.w3.org/2000/svg">
<g id=".Graphics">
<path id="Fill" opacity="0.8" d="M18.3582 28.9942C11.3867 28.3582 1.95166 38.3267 1.95166 38.3267V70.9905H89.3805V28.9942C89.3805 28.9942 82.6619 34.8456 78.0782 33.8509C70.7614 32.2631 74.8994 15.7859 67.7967 12.9956C62.652 10.9746 59.311 19.0723 54.3069 16.5191C49.2717 13.9501 50.9868 5.16599 46.2129 1.85376C35.4163 -5.63722 44.2902 38.6391 32.0668 38.3267C26.0307 38.1725 24.3808 29.5437 18.3582 28.9942Z" fill="url(#paint0_linear_226_2840)"/>
<path id="Line" d="M1.95166 38.3267C1.95166 38.3267 11.3867 28.3582 18.3582 28.9942C24.3808 29.5437 26.0307 38.1724 32.0668 38.3267C44.2902 38.6391 35.4163 -5.63722 46.2129 1.85376C50.9868 5.16599 49.2717 13.9501 54.3069 16.5191C59.311 19.0723 62.652 10.9746 67.7967 12.9956C74.8994 15.7859 70.7614 32.2631 78.0782 33.8509C82.6619 34.8456 89.3805 28.9942 89.3805 28.9942" stroke="#F04438" stroke-width="2" stroke-linecap="round" stroke-linejoin="round"/>
</g>
<defs>
<linearGradient id="paint0_linear_226_2840" x1="45.6661" y1="1" x2="45.6661" y2="70.9905" gradientUnits="userSpaceOnUse">
<stop stop-color="#F04438" stop-opacity="0.3"/>
<stop offset="1" stop-color="white" stop-opacity="0"/>
</linearGradient>
</defs>
</svg>
